<mxfile host="Electron" modified="2024-04-08T05:58:54.981Z" agent="Mozilla/5.0 (Windows NT 10.0; Win64; x64) AppleWebKit/537.36 (KHTML, like Gecko) draw.io/24.1.0 Chrome/120.0.6099.109 Electron/28.1.0 Safari/537.36" etag="X7ADVWoBh4g5596SNcDx" version="24.1.0" type="device">
  <diagram name="Диаграмма вариантов использования" id="NbG7qCOulmibzaSpyFNz">
    <mxGraphModel dx="1235" dy="844" grid="1" gridSize="10" guides="1" tooltips="1" connect="1" arrows="1" fold="1" page="1" pageScale="1" pageWidth="827" pageHeight="1169" math="0" shadow="0">
      <root>
        <mxCell id="0" />
        <mxCell id="1" parent="0" />
        <mxCell id="haFD14Nc8Q8okJl3zGvy-1" value="" style="rounded=0;whiteSpace=wrap;html=1;movable=0;resizable=0;rotatable=0;deletable=0;editable=0;locked=1;connectable=0;strokeWidth=2;fillColor=default;strokeColor=#6c8ebf;" vertex="1" parent="1">
          <mxGeometry x="10" y="40" width="800" height="1950" as="geometry" />
        </mxCell>
        <mxCell id="haFD14Nc8Q8okJl3zGvy-2" value="&lt;font face=&quot;Times New Roman&quot;&gt;Диаграмма вариантов использования&lt;/font&gt;" style="rounded=0;whiteSpace=wrap;html=1;fillColor=#dae8fc;strokeColor=#6c8ebf;fontStyle=1;strokeWidth=2;movable=0;resizable=0;rotatable=0;deletable=0;editable=0;locked=1;connectable=0;fontSize=20;" vertex="1" parent="1">
          <mxGeometry x="10" y="10" width="800" height="30" as="geometry" />
        </mxCell>
        <mxCell id="haFD14Nc8Q8okJl3zGvy-21" value="" style="rounded=1;whiteSpace=wrap;html=1;fillColor=none;strokeColor=#666666;strokeWidth=2;arcSize=4;fontColor=#333333;movable=1;resizable=1;rotatable=1;deletable=1;editable=1;locked=0;connectable=1;" vertex="1" parent="1">
          <mxGeometry x="160" y="60" width="640" height="1910" as="geometry" />
        </mxCell>
        <mxCell id="haFD14Nc8Q8okJl3zGvy-25" value="&lt;font size=&quot;1&quot; face=&quot;Times New Roman&quot;&gt;&lt;b style=&quot;font-size: 18px;&quot;&gt;Информационная система аэропорта&lt;/b&gt;&lt;/font&gt;" style="text;html=1;align=center;verticalAlign=middle;whiteSpace=wrap;rounded=0;movable=1;resizable=1;rotatable=1;deletable=1;editable=1;locked=0;connectable=1;" vertex="1" parent="1">
          <mxGeometry x="180" y="60" width="600" height="40" as="geometry" />
        </mxCell>
        <mxCell id="haFD14Nc8Q8okJl3zGvy-26" value="Авторизация&amp;nbsp;&lt;span style=&quot;background-color: initial; font-size: 14px;&quot;&gt;по&lt;/span&gt;&lt;div style=&quot;font-size: 14px;&quot;&gt;&lt;span style=&quot;background-color: initial; font-size: 14px;&quot;&gt;эл. почте и паролю&lt;/span&gt;&lt;/div&gt;" style="ellipse;whiteSpace=wrap;html=1;fontFamily=Times New Roman;fontStyle=1;fillColor=#dae8fc;strokeColor=#6c8ebf;strokeWidth=2;fontSize=14;" vertex="1" parent="1">
          <mxGeometry x="180" y="110" width="140" height="60" as="geometry" />
        </mxCell>
        <mxCell id="haFD14Nc8Q8okJl3zGvy-28" value="Регистрация&lt;div style=&quot;font-size: 14px;&quot;&gt;в системе&lt;/div&gt;" style="ellipse;whiteSpace=wrap;html=1;fontFamily=Times New Roman;fontStyle=1;fillColor=#dae8fc;strokeColor=#6c8ebf;strokeWidth=2;fontSize=14;" vertex="1" parent="1">
          <mxGeometry x="180" y="190" width="140" height="60" as="geometry" />
        </mxCell>
        <mxCell id="haFD14Nc8Q8okJl3zGvy-29" value="Выход из системы" style="ellipse;whiteSpace=wrap;html=1;fontFamily=Times New Roman;fontStyle=1;fillColor=#dae8fc;strokeColor=#6c8ebf;strokeWidth=2;fontSize=14;" vertex="1" parent="1">
          <mxGeometry x="180" y="270" width="140" height="60" as="geometry" />
        </mxCell>
        <mxCell id="haFD14Nc8Q8okJl3zGvy-31" style="rounded=0;orthogonalLoop=1;jettySize=auto;html=1;exitX=0;exitY=0.5;exitDx=0;exitDy=0;fillColor=#dae8fc;strokeColor=#6c8ebf;strokeWidth=2;dashed=1;" edge="1" parent="1" source="haFD14Nc8Q8okJl3zGvy-30" target="haFD14Nc8Q8okJl3zGvy-26">
          <mxGeometry relative="1" as="geometry" />
        </mxCell>
        <mxCell id="haFD14Nc8Q8okJl3zGvy-37" style="rounded=0;orthogonalLoop=1;jettySize=auto;html=1;exitX=1;exitY=0.5;exitDx=0;exitDy=0;entryX=0;entryY=0.5;entryDx=0;entryDy=0;fillColor=#dae8fc;strokeColor=#6c8ebf;strokeWidth=2;dashed=1;" edge="1" parent="1" source="haFD14Nc8Q8okJl3zGvy-30" target="haFD14Nc8Q8okJl3zGvy-34">
          <mxGeometry relative="1" as="geometry" />
        </mxCell>
        <mxCell id="haFD14Nc8Q8okJl3zGvy-59" style="rounded=0;orthogonalLoop=1;jettySize=auto;html=1;exitX=0.357;exitY=0.993;exitDx=0;exitDy=0;entryX=1;entryY=0;entryDx=0;entryDy=0;exitPerimeter=0;fillColor=#dae8fc;strokeColor=#6c8ebf;strokeWidth=2;dashed=1;" edge="1" parent="1" source="haFD14Nc8Q8okJl3zGvy-30" target="haFD14Nc8Q8okJl3zGvy-54">
          <mxGeometry relative="1" as="geometry" />
        </mxCell>
        <mxCell id="haFD14Nc8Q8okJl3zGvy-30" value="&lt;font face=&quot;Times New Roman&quot; style=&quot;font-size: 14px; font-weight: 400;&quot;&gt;&lt;b style=&quot;font-size: 14px;&quot;&gt;Отправление запроса&lt;/b&gt;&lt;/font&gt;&lt;div style=&quot;font-family: Helvetica; font-size: 14px; font-weight: 400;&quot;&gt;&lt;font style=&quot;font-size: 14px;&quot; face=&quot;Times New Roman&quot;&gt;&lt;b style=&quot;font-size: 14px;&quot;&gt;на сброс пароля&lt;/b&gt;&lt;/font&gt;&lt;/div&gt;" style="ellipse;whiteSpace=wrap;html=1;fontFamily=Times New Roman;fontStyle=1;fillColor=#dae8fc;strokeColor=#6c8ebf;strokeWidth=2;fontSize=14;align=center;" vertex="1" parent="1">
          <mxGeometry x="380" y="130" width="140" height="60" as="geometry" />
        </mxCell>
        <mxCell id="haFD14Nc8Q8okJl3zGvy-43" style="rounded=0;orthogonalLoop=1;jettySize=auto;html=1;exitX=0.277;exitY=0.967;exitDx=0;exitDy=0;entryX=1;entryY=0;entryDx=0;entryDy=0;fillColor=#dae8fc;strokeColor=#6c8ebf;strokeWidth=2;dashed=1;exitPerimeter=0;" edge="1" parent="1" source="haFD14Nc8Q8okJl3zGvy-34" target="haFD14Nc8Q8okJl3zGvy-40">
          <mxGeometry relative="1" as="geometry" />
        </mxCell>
        <mxCell id="haFD14Nc8Q8okJl3zGvy-34" value="Управление&lt;div&gt;сбросами паролей&lt;/div&gt;" style="ellipse;whiteSpace=wrap;html=1;fontFamily=Times New Roman;fontStyle=1;fillColor=#dae8fc;strokeColor=#6c8ebf;strokeWidth=2;fontSize=14;align=center;" vertex="1" parent="1">
          <mxGeometry x="584" y="140" width="140" height="60" as="geometry" />
        </mxCell>
        <mxCell id="haFD14Nc8Q8okJl3zGvy-40" value="Просмотр запросов&lt;div&gt;на сброс паролей&lt;/div&gt;" style="ellipse;whiteSpace=wrap;html=1;fontFamily=Times New Roman;fontStyle=1;fillColor=#dae8fc;strokeColor=#6c8ebf;strokeWidth=2;fontSize=14;align=center;" vertex="1" parent="1">
          <mxGeometry x="404" y="240" width="140" height="60" as="geometry" />
        </mxCell>
        <mxCell id="haFD14Nc8Q8okJl3zGvy-47" style="rounded=0;orthogonalLoop=1;jettySize=auto;html=1;exitX=0.5;exitY=0;exitDx=0;exitDy=0;entryX=1;entryY=1;entryDx=0;entryDy=0;fillColor=#dae8fc;strokeColor=#6c8ebf;strokeWidth=2;dashed=1;" edge="1" parent="1" source="haFD14Nc8Q8okJl3zGvy-41" target="haFD14Nc8Q8okJl3zGvy-34">
          <mxGeometry relative="1" as="geometry" />
        </mxCell>
        <mxCell id="haFD14Nc8Q8okJl3zGvy-41" value="&lt;font face=&quot;Times New Roman&quot; style=&quot;font-size: 14px; font-weight: 400;&quot;&gt;&lt;b style=&quot;font-size: 14px;&quot;&gt;Удаление запроса&lt;/b&gt;&lt;/font&gt;&lt;div style=&quot;font-family: Helvetica; font-size: 14px; font-weight: 400;&quot;&gt;&lt;font face=&quot;Times New Roman&quot; style=&quot;font-size: 14px;&quot;&gt;&lt;b style=&quot;font-size: 14px;&quot;&gt;на сброс пароля&lt;/b&gt;&lt;/font&gt;&lt;/div&gt;" style="ellipse;whiteSpace=wrap;html=1;fontFamily=Times New Roman;fontStyle=1;fillColor=#dae8fc;strokeColor=#6c8ebf;strokeWidth=2;fontSize=14;align=center;" vertex="1" parent="1">
          <mxGeometry x="654" y="220" width="140" height="60" as="geometry" />
        </mxCell>
        <mxCell id="haFD14Nc8Q8okJl3zGvy-46" style="rounded=0;orthogonalLoop=1;jettySize=auto;html=1;exitX=0.5;exitY=0;exitDx=0;exitDy=0;entryX=0.5;entryY=1;entryDx=0;entryDy=0;fillColor=#dae8fc;strokeColor=#6c8ebf;strokeWidth=2;dashed=1;" edge="1" parent="1" source="haFD14Nc8Q8okJl3zGvy-42" target="haFD14Nc8Q8okJl3zGvy-34">
          <mxGeometry relative="1" as="geometry" />
        </mxCell>
        <mxCell id="haFD14Nc8Q8okJl3zGvy-42" value="&lt;font face=&quot;Times New Roman&quot; style=&quot;font-size: 14px; font-weight: 400;&quot;&gt;&lt;b style=&quot;font-size: 14px;&quot;&gt;Подтверждение запроса&amp;nbsp;&lt;/b&gt;&lt;/font&gt;&lt;b style=&quot;background-color: initial;&quot;&gt;на сброс пароля&lt;/b&gt;" style="ellipse;whiteSpace=wrap;html=1;fontFamily=Times New Roman;fontStyle=1;fillColor=#dae8fc;strokeColor=#6c8ebf;strokeWidth=2;fontSize=14;align=center;" vertex="1" parent="1">
          <mxGeometry x="544" y="280" width="140" height="60" as="geometry" />
        </mxCell>
        <mxCell id="haFD14Nc8Q8okJl3zGvy-48" style="rounded=0;orthogonalLoop=1;jettySize=auto;html=1;exitX=1;exitY=0.25;exitDx=0;exitDy=0;entryX=0;entryY=0.5;entryDx=0;entryDy=0;fillColor=#fad9d5;strokeColor=#ae4132;strokeWidth=2;" edge="1" parent="1" source="haFD14Nc8Q8okJl3zGvy-16" target="haFD14Nc8Q8okJl3zGvy-26">
          <mxGeometry relative="1" as="geometry" />
        </mxCell>
        <mxCell id="haFD14Nc8Q8okJl3zGvy-52" style="rounded=0;orthogonalLoop=1;jettySize=auto;html=1;exitX=1;exitY=0.25;exitDx=0;exitDy=0;entryX=0;entryY=0;entryDx=0;entryDy=0;fillColor=#fad9d5;strokeColor=#ae4132;strokeWidth=2;" edge="1" parent="1" source="haFD14Nc8Q8okJl3zGvy-16" target="haFD14Nc8Q8okJl3zGvy-29">
          <mxGeometry relative="1" as="geometry" />
        </mxCell>
        <mxCell id="haFD14Nc8Q8okJl3zGvy-53" style="rounded=0;orthogonalLoop=1;jettySize=auto;html=1;exitX=1;exitY=0.25;exitDx=0;exitDy=0;entryX=0;entryY=0;entryDx=0;entryDy=0;fillColor=#fad9d5;strokeColor=#ae4132;strokeWidth=2;" edge="1" parent="1" source="haFD14Nc8Q8okJl3zGvy-16" target="haFD14Nc8Q8okJl3zGvy-34">
          <mxGeometry relative="1" as="geometry">
            <Array as="points">
              <mxPoint x="240" y="80" />
            </Array>
          </mxGeometry>
        </mxCell>
        <mxCell id="haFD14Nc8Q8okJl3zGvy-54" value="Управление профилем" style="ellipse;whiteSpace=wrap;html=1;fontFamily=Times New Roman;fontStyle=1;fillColor=#dae8fc;strokeColor=#6c8ebf;strokeWidth=2;fontSize=14;align=center;" vertex="1" parent="1">
          <mxGeometry x="183" y="400" width="140" height="60" as="geometry" />
        </mxCell>
        <mxCell id="haFD14Nc8Q8okJl3zGvy-60" style="rounded=0;orthogonalLoop=1;jettySize=auto;html=1;exitX=0.054;exitY=0.72;exitDx=0;exitDy=0;entryX=0.987;entryY=0.341;entryDx=0;entryDy=0;fillColor=#dae8fc;strokeColor=#6c8ebf;strokeWidth=2;dashed=1;exitPerimeter=0;entryPerimeter=0;" edge="1" parent="1" source="haFD14Nc8Q8okJl3zGvy-55" target="haFD14Nc8Q8okJl3zGvy-54">
          <mxGeometry relative="1" as="geometry" />
        </mxCell>
        <mxCell id="haFD14Nc8Q8okJl3zGvy-55" value="Просмотр&lt;div&gt;профиля&lt;/div&gt;" style="ellipse;whiteSpace=wrap;html=1;fontFamily=Times New Roman;fontStyle=1;fillColor=#dae8fc;strokeColor=#6c8ebf;strokeWidth=2;fontSize=14;align=center;" vertex="1" parent="1">
          <mxGeometry x="373" y="360" width="140" height="60" as="geometry" />
        </mxCell>
        <mxCell id="haFD14Nc8Q8okJl3zGvy-61" style="rounded=0;orthogonalLoop=1;jettySize=auto;html=1;exitX=0.42;exitY=-0.02;exitDx=0;exitDy=0;entryX=0.5;entryY=1;entryDx=0;entryDy=0;fillColor=#dae8fc;strokeColor=#6c8ebf;strokeWidth=2;dashed=1;exitPerimeter=0;" edge="1" parent="1" source="haFD14Nc8Q8okJl3zGvy-56" target="haFD14Nc8Q8okJl3zGvy-54">
          <mxGeometry relative="1" as="geometry" />
        </mxCell>
        <mxCell id="haFD14Nc8Q8okJl3zGvy-56" value="Изменение&lt;div&gt;фото профиля&lt;/div&gt;" style="ellipse;whiteSpace=wrap;html=1;fontFamily=Times New Roman;fontStyle=1;fillColor=#dae8fc;strokeColor=#6c8ebf;strokeWidth=2;fontSize=14;align=center;" vertex="1" parent="1">
          <mxGeometry x="203" y="490" width="140" height="60" as="geometry" />
        </mxCell>
        <mxCell id="haFD14Nc8Q8okJl3zGvy-62" style="rounded=0;orthogonalLoop=1;jettySize=auto;html=1;exitX=0.074;exitY=0.253;exitDx=0;exitDy=0;entryX=0.782;entryY=0.911;entryDx=0;entryDy=0;fillColor=#dae8fc;strokeColor=#6c8ebf;strokeWidth=2;dashed=1;exitPerimeter=0;entryPerimeter=0;" edge="1" parent="1" source="haFD14Nc8Q8okJl3zGvy-57" target="haFD14Nc8Q8okJl3zGvy-54">
          <mxGeometry relative="1" as="geometry" />
        </mxCell>
        <mxCell id="haFD14Nc8Q8okJl3zGvy-57" value="Обновление&lt;div&gt;профиля&lt;/div&gt;" style="ellipse;whiteSpace=wrap;html=1;fontFamily=Times New Roman;fontStyle=1;fillColor=#dae8fc;strokeColor=#6c8ebf;strokeWidth=2;fontSize=14;align=center;" vertex="1" parent="1">
          <mxGeometry x="383" y="480" width="140" height="60" as="geometry" />
        </mxCell>
        <mxCell id="haFD14Nc8Q8okJl3zGvy-58" value="Изменение&lt;div&gt;фона профиля&lt;/div&gt;" style="ellipse;whiteSpace=wrap;html=1;fontFamily=Times New Roman;fontStyle=1;fillColor=#dae8fc;strokeColor=#6c8ebf;strokeWidth=2;fontSize=14;align=center;" vertex="1" parent="1">
          <mxGeometry x="517" y="420" width="140" height="60" as="geometry" />
        </mxCell>
        <mxCell id="haFD14Nc8Q8okJl3zGvy-63" style="rounded=0;orthogonalLoop=1;jettySize=auto;html=1;exitX=0;exitY=0.5;exitDx=0;exitDy=0;entryX=0.956;entryY=0.755;entryDx=0;entryDy=0;entryPerimeter=0;fillColor=#dae8fc;strokeColor=#6c8ebf;strokeWidth=2;dashed=1;" edge="1" parent="1" source="haFD14Nc8Q8okJl3zGvy-58" target="haFD14Nc8Q8okJl3zGvy-54">
          <mxGeometry relative="1" as="geometry" />
        </mxCell>
        <mxCell id="haFD14Nc8Q8okJl3zGvy-64" style="rounded=0;orthogonalLoop=1;jettySize=auto;html=1;exitX=1;exitY=0.25;exitDx=0;exitDy=0;entryX=0;entryY=0;entryDx=0;entryDy=0;fillColor=#fad9d5;strokeColor=#ae4132;strokeWidth=2;" edge="1" parent="1" source="haFD14Nc8Q8okJl3zGvy-16" target="haFD14Nc8Q8okJl3zGvy-54">
          <mxGeometry relative="1" as="geometry" />
        </mxCell>
        <mxCell id="haFD14Nc8Q8okJl3zGvy-66" value="&amp;lt;&amp;lt;&amp;nbsp;extend&amp;nbsp;&amp;gt;&amp;gt;" style="text;html=1;strokeColor=none;fillColor=none;align=center;verticalAlign=middle;whiteSpace=wrap;rounded=0;fontFamily=Times New Roman;fontSize=12;fontStyle=1" vertex="1" parent="1">
          <mxGeometry x="307" y="160" width="80" height="20" as="geometry" />
        </mxCell>
        <mxCell id="haFD14Nc8Q8okJl3zGvy-67" value="&amp;lt;&amp;lt; include &amp;gt;&amp;gt;" style="text;html=1;strokeColor=none;fillColor=none;align=center;verticalAlign=middle;whiteSpace=wrap;rounded=0;fontFamily=Times New Roman;fontSize=12;fontStyle=1" vertex="1" parent="1">
          <mxGeometry x="507" y="171" width="80" height="20" as="geometry" />
        </mxCell>
        <mxCell id="haFD14Nc8Q8okJl3zGvy-68" value="&amp;lt;&amp;lt; include &amp;gt;&amp;gt;" style="text;html=1;strokeColor=none;fillColor=default;align=center;verticalAlign=middle;whiteSpace=wrap;rounded=0;fontFamily=Times New Roman;fontSize=12;fontStyle=1" vertex="1" parent="1">
          <mxGeometry x="533" y="210" width="80" height="20" as="geometry" />
        </mxCell>
        <mxCell id="haFD14Nc8Q8okJl3zGvy-69" value="&amp;lt;&amp;lt;&amp;nbsp;extend&amp;nbsp;&amp;gt;&amp;gt;" style="text;html=1;strokeColor=none;fillColor=none;align=center;verticalAlign=middle;whiteSpace=wrap;rounded=0;fontFamily=Times New Roman;fontSize=12;fontStyle=1" vertex="1" parent="1">
          <mxGeometry x="718" y="193" width="80" height="20" as="geometry" />
        </mxCell>
        <mxCell id="haFD14Nc8Q8okJl3zGvy-70" value="&amp;lt;&amp;lt;&amp;nbsp;extend&amp;nbsp;&amp;gt;&amp;gt;" style="text;html=1;strokeColor=none;fillColor=default;align=center;verticalAlign=middle;whiteSpace=wrap;rounded=0;fontFamily=Times New Roman;fontSize=12;fontStyle=1" vertex="1" parent="1">
          <mxGeometry x="566" y="249" width="80" height="20" as="geometry" />
        </mxCell>
        <mxCell id="haFD14Nc8Q8okJl3zGvy-71" value="&amp;lt;&amp;lt;&amp;nbsp;extend&amp;nbsp;&amp;gt;&amp;gt;" style="text;html=1;strokeColor=none;fillColor=default;align=center;verticalAlign=middle;whiteSpace=wrap;rounded=0;fontFamily=Times New Roman;fontSize=12;fontStyle=1" vertex="1" parent="1">
          <mxGeometry x="400" y="200" width="80" height="20" as="geometry" />
        </mxCell>
        <mxCell id="haFD14Nc8Q8okJl3zGvy-72" value="&amp;lt;&amp;lt;&amp;nbsp;extend&amp;nbsp;&amp;gt;&amp;gt;" style="text;html=1;strokeColor=none;fillColor=none;align=center;verticalAlign=middle;whiteSpace=wrap;rounded=0;fontFamily=Times New Roman;fontSize=12;fontStyle=1" vertex="1" parent="1">
          <mxGeometry x="390" y="426" width="80" height="20" as="geometry" />
        </mxCell>
        <mxCell id="haFD14Nc8Q8okJl3zGvy-73" value="&amp;lt;&amp;lt;&amp;nbsp;extend&amp;nbsp;&amp;gt;&amp;gt;" style="text;html=1;strokeColor=none;fillColor=none;align=center;verticalAlign=middle;whiteSpace=wrap;rounded=0;fontFamily=Times New Roman;fontSize=12;fontStyle=1" vertex="1" parent="1">
          <mxGeometry x="337" y="459" width="80" height="20" as="geometry" />
        </mxCell>
        <mxCell id="haFD14Nc8Q8okJl3zGvy-74" value="&amp;lt;&amp;lt;&amp;nbsp;extend&amp;nbsp;&amp;gt;&amp;gt;" style="text;html=1;strokeColor=none;fillColor=none;align=center;verticalAlign=middle;whiteSpace=wrap;rounded=0;fontFamily=Times New Roman;fontSize=12;fontStyle=1" vertex="1" parent="1">
          <mxGeometry x="257" y="468" width="80" height="20" as="geometry" />
        </mxCell>
        <mxCell id="haFD14Nc8Q8okJl3zGvy-75" value="&amp;lt;&amp;lt;&amp;nbsp;extend&amp;nbsp;&amp;gt;&amp;gt;" style="text;html=1;strokeColor=none;fillColor=none;align=center;verticalAlign=middle;whiteSpace=wrap;rounded=0;fontFamily=Times New Roman;fontSize=12;fontStyle=1" vertex="1" parent="1">
          <mxGeometry x="302" y="391" width="80" height="20" as="geometry" />
        </mxCell>
        <mxCell id="haFD14Nc8Q8okJl3zGvy-123" style="rounded=0;orthogonalLoop=1;jettySize=auto;html=1;exitX=0.5;exitY=0;exitDx=0;exitDy=0;entryX=0.5;entryY=1;entryDx=0;entryDy=0;fillColor=#dae8fc;strokeColor=#6c8ebf;strokeWidth=2;dashed=1;" edge="1" parent="1" source="haFD14Nc8Q8okJl3zGvy-109" target="haFD14Nc8Q8okJl3zGvy-114">
          <mxGeometry relative="1" as="geometry" />
        </mxCell>
        <mxCell id="haFD14Nc8Q8okJl3zGvy-109" value="Управление&lt;div&gt;рейсами&lt;/div&gt;" style="ellipse;whiteSpace=wrap;html=1;fontFamily=Times New Roman;fontStyle=1;fillColor=#dae8fc;strokeColor=#6c8ebf;strokeWidth=2;fontSize=14;align=center;" vertex="1" parent="1">
          <mxGeometry x="178.5" y="1210" width="140" height="60" as="geometry" />
        </mxCell>
        <mxCell id="haFD14Nc8Q8okJl3zGvy-113" style="rounded=0;orthogonalLoop=1;jettySize=auto;html=1;entryX=0.5;entryY=1;entryDx=0;entryDy=0;fillColor=#dae8fc;strokeColor=#6c8ebf;strokeWidth=2;dashed=1;" edge="1" parent="1" target="haFD14Nc8Q8okJl3zGvy-109">
          <mxGeometry relative="1" as="geometry">
            <mxPoint x="262.5" y="1320" as="sourcePoint" />
          </mxGeometry>
        </mxCell>
        <mxCell id="haFD14Nc8Q8okJl3zGvy-110" value="Просмотр&lt;div&gt;доступных рейсов&lt;/div&gt;" style="ellipse;whiteSpace=wrap;html=1;fontFamily=Times New Roman;fontStyle=1;fillColor=#dae8fc;strokeColor=#6c8ebf;strokeWidth=2;fontSize=14;align=center;" vertex="1" parent="1">
          <mxGeometry x="178.5" y="1320" width="140" height="60" as="geometry" />
        </mxCell>
        <mxCell id="haFD14Nc8Q8okJl3zGvy-111" style="rounded=0;orthogonalLoop=1;jettySize=auto;html=1;exitX=1;exitY=0.25;exitDx=0;exitDy=0;entryX=0.079;entryY=0.208;entryDx=0;entryDy=0;fillColor=#fad9d5;strokeColor=#ae4132;strokeWidth=2;entryPerimeter=0;" edge="1" parent="1" source="haFD14Nc8Q8okJl3zGvy-16" target="haFD14Nc8Q8okJl3zGvy-109">
          <mxGeometry relative="1" as="geometry" />
        </mxCell>
        <mxCell id="haFD14Nc8Q8okJl3zGvy-114" value="Просмотр&lt;div&gt;всех рейсов&lt;/div&gt;" style="ellipse;whiteSpace=wrap;html=1;fontFamily=Times New Roman;fontStyle=1;fillColor=#dae8fc;strokeColor=#6c8ebf;strokeWidth=2;fontSize=14;align=center;" vertex="1" parent="1">
          <mxGeometry x="198.5" y="1110" width="140" height="60" as="geometry" />
        </mxCell>
        <mxCell id="haFD14Nc8Q8okJl3zGvy-124" style="rounded=0;orthogonalLoop=1;jettySize=auto;html=1;exitX=0.027;exitY=0.676;exitDx=0;exitDy=0;entryX=0.773;entryY=0.097;entryDx=0;entryDy=0;fillColor=#dae8fc;strokeColor=#6c8ebf;strokeWidth=2;dashed=1;entryPerimeter=0;exitPerimeter=0;" edge="1" parent="1" source="haFD14Nc8Q8okJl3zGvy-115" target="haFD14Nc8Q8okJl3zGvy-109">
          <mxGeometry relative="1" as="geometry" />
        </mxCell>
        <mxCell id="haFD14Nc8Q8okJl3zGvy-115" value="Добавление&lt;div&gt;рейса&lt;/div&gt;" style="ellipse;whiteSpace=wrap;html=1;fontFamily=Times New Roman;fontStyle=1;fillColor=#dae8fc;strokeColor=#6c8ebf;strokeWidth=2;fontSize=14;align=center;" vertex="1" parent="1">
          <mxGeometry x="367" y="1110" width="140" height="60" as="geometry" />
        </mxCell>
        <mxCell id="haFD14Nc8Q8okJl3zGvy-125" style="rounded=0;orthogonalLoop=1;jettySize=auto;html=1;exitX=0.006;exitY=0.637;exitDx=0;exitDy=0;entryX=0.982;entryY=0.326;entryDx=0;entryDy=0;fillColor=#dae8fc;strokeColor=#6c8ebf;strokeWidth=2;dashed=1;entryPerimeter=0;exitPerimeter=0;" edge="1" parent="1" source="haFD14Nc8Q8okJl3zGvy-116" target="haFD14Nc8Q8okJl3zGvy-109">
          <mxGeometry relative="1" as="geometry" />
        </mxCell>
        <mxCell id="haFD14Nc8Q8okJl3zGvy-116" value="Обновление&lt;div&gt;информации&lt;/div&gt;&lt;div&gt;о рейсе&lt;/div&gt;" style="ellipse;whiteSpace=wrap;html=1;fontFamily=Times New Roman;fontStyle=1;fillColor=#dae8fc;strokeColor=#6c8ebf;strokeWidth=2;fontSize=14;align=center;" vertex="1" parent="1">
          <mxGeometry x="538.5" y="1170" width="140" height="60" as="geometry" />
        </mxCell>
        <mxCell id="haFD14Nc8Q8okJl3zGvy-117" value="Удаление рейса" style="ellipse;whiteSpace=wrap;html=1;fontFamily=Times New Roman;fontStyle=1;fillColor=#dae8fc;strokeColor=#6c8ebf;strokeWidth=2;fontSize=14;align=center;" vertex="1" parent="1">
          <mxGeometry x="538.5" y="1260" width="140" height="60" as="geometry" />
        </mxCell>
        <mxCell id="haFD14Nc8Q8okJl3zGvy-127" style="rounded=0;orthogonalLoop=1;jettySize=auto;html=1;exitX=0.018;exitY=0.318;exitDx=0;exitDy=0;entryX=0.771;entryY=0.925;entryDx=0;entryDy=0;fillColor=#dae8fc;strokeColor=#6c8ebf;strokeWidth=2;dashed=1;exitPerimeter=0;entryPerimeter=0;" edge="1" parent="1" source="haFD14Nc8Q8okJl3zGvy-122" target="haFD14Nc8Q8okJl3zGvy-109">
          <mxGeometry relative="1" as="geometry" />
        </mxCell>
        <mxCell id="haFD14Nc8Q8okJl3zGvy-122" value="Просмотр&lt;div&gt;информации&lt;/div&gt;&lt;div&gt;о рейсе&lt;/div&gt;" style="ellipse;whiteSpace=wrap;html=1;fontFamily=Times New Roman;fontStyle=1;fillColor=#dae8fc;strokeColor=#6c8ebf;strokeWidth=2;fontSize=14;align=center;" vertex="1" parent="1">
          <mxGeometry x="368.5" y="1320" width="140" height="60" as="geometry" />
        </mxCell>
        <mxCell id="haFD14Nc8Q8okJl3zGvy-126" style="rounded=0;orthogonalLoop=1;jettySize=auto;html=1;exitX=0;exitY=0.5;exitDx=0;exitDy=0;entryX=0.957;entryY=0.703;entryDx=0;entryDy=0;entryPerimeter=0;fillColor=#dae8fc;strokeColor=#6c8ebf;strokeWidth=2;dashed=1;" edge="1" parent="1" source="haFD14Nc8Q8okJl3zGvy-117" target="haFD14Nc8Q8okJl3zGvy-109">
          <mxGeometry relative="1" as="geometry" />
        </mxCell>
        <mxCell id="haFD14Nc8Q8okJl3zGvy-135" style="rounded=0;orthogonalLoop=1;jettySize=auto;html=1;exitX=0.5;exitY=0;exitDx=0;exitDy=0;entryX=0.5;entryY=1;entryDx=0;entryDy=0;fillColor=#dae8fc;strokeColor=#6c8ebf;strokeWidth=2;dashed=1;" edge="1" parent="1" source="haFD14Nc8Q8okJl3zGvy-129" target="haFD14Nc8Q8okJl3zGvy-130">
          <mxGeometry relative="1" as="geometry" />
        </mxCell>
        <mxCell id="haFD14Nc8Q8okJl3zGvy-129" value="Управление&lt;div&gt;пассажирами&lt;/div&gt;" style="ellipse;whiteSpace=wrap;html=1;fontFamily=Times New Roman;fontStyle=1;fillColor=#dae8fc;strokeColor=#6c8ebf;strokeWidth=2;fontSize=14;align=center;" vertex="1" parent="1">
          <mxGeometry x="178.5" y="750" width="140" height="60" as="geometry" />
        </mxCell>
        <mxCell id="haFD14Nc8Q8okJl3zGvy-130" value="Просмотр&lt;div&gt;всех пассажиров&lt;/div&gt;" style="ellipse;whiteSpace=wrap;html=1;fontFamily=Times New Roman;fontStyle=1;fillColor=#dae8fc;strokeColor=#6c8ebf;strokeWidth=2;fontSize=14;align=center;" vertex="1" parent="1">
          <mxGeometry x="198.5" y="590" width="140" height="60" as="geometry" />
        </mxCell>
        <mxCell id="haFD14Nc8Q8okJl3zGvy-136" style="rounded=0;orthogonalLoop=1;jettySize=auto;html=1;exitX=0;exitY=1;exitDx=0;exitDy=0;entryX=0.715;entryY=0.017;entryDx=0;entryDy=0;fillColor=#dae8fc;strokeColor=#6c8ebf;strokeWidth=2;dashed=1;entryPerimeter=0;" edge="1" parent="1" source="haFD14Nc8Q8okJl3zGvy-131" target="haFD14Nc8Q8okJl3zGvy-129">
          <mxGeometry relative="1" as="geometry" />
        </mxCell>
        <mxCell id="haFD14Nc8Q8okJl3zGvy-131" value="Добавление&lt;div&gt;нового пассажира&lt;/div&gt;" style="ellipse;whiteSpace=wrap;html=1;fontFamily=Times New Roman;fontStyle=1;fillColor=#dae8fc;strokeColor=#6c8ebf;strokeWidth=2;fontSize=14;align=center;" vertex="1" parent="1">
          <mxGeometry x="370" y="590" width="137" height="60" as="geometry" />
        </mxCell>
        <mxCell id="haFD14Nc8Q8okJl3zGvy-137" style="rounded=0;orthogonalLoop=1;jettySize=auto;html=1;exitX=0.059;exitY=0.716;exitDx=0;exitDy=0;entryX=1;entryY=0;entryDx=0;entryDy=0;fillColor=#dae8fc;strokeColor=#6c8ebf;strokeWidth=2;dashed=1;exitPerimeter=0;" edge="1" parent="1" source="haFD14Nc8Q8okJl3zGvy-132" target="haFD14Nc8Q8okJl3zGvy-129">
          <mxGeometry relative="1" as="geometry" />
        </mxCell>
        <mxCell id="haFD14Nc8Q8okJl3zGvy-132" value="Обновление&lt;div&gt;информации&lt;/div&gt;&lt;div&gt;о пассажире&lt;/div&gt;" style="ellipse;whiteSpace=wrap;html=1;fontFamily=Times New Roman;fontStyle=1;fillColor=#dae8fc;strokeColor=#6c8ebf;strokeWidth=2;fontSize=14;align=center;" vertex="1" parent="1">
          <mxGeometry x="538.5" y="590" width="140" height="60" as="geometry" />
        </mxCell>
        <mxCell id="haFD14Nc8Q8okJl3zGvy-133" value="Удаление&lt;div&gt;пассажира&lt;/div&gt;" style="ellipse;whiteSpace=wrap;html=1;fontFamily=Times New Roman;fontStyle=1;fillColor=#dae8fc;strokeColor=#6c8ebf;strokeWidth=2;fontSize=14;align=center;" vertex="1" parent="1">
          <mxGeometry x="538.5" y="670" width="140" height="60" as="geometry" />
        </mxCell>
        <mxCell id="haFD14Nc8Q8okJl3zGvy-139" style="rounded=0;orthogonalLoop=1;jettySize=auto;html=1;exitX=0;exitY=0.5;exitDx=0;exitDy=0;fillColor=#dae8fc;strokeColor=#6c8ebf;strokeWidth=2;dashed=1;" edge="1" parent="1" source="haFD14Nc8Q8okJl3zGvy-134" target="haFD14Nc8Q8okJl3zGvy-129">
          <mxGeometry relative="1" as="geometry" />
        </mxCell>
        <mxCell id="haFD14Nc8Q8okJl3zGvy-134" value="Просмотр&lt;div&gt;инфомации&lt;/div&gt;&lt;div&gt;о пассажире&lt;/div&gt;" style="ellipse;whiteSpace=wrap;html=1;fontFamily=Times New Roman;fontStyle=1;fillColor=#dae8fc;strokeColor=#6c8ebf;strokeWidth=2;fontSize=14;align=center;" vertex="1" parent="1">
          <mxGeometry x="538.5" y="750" width="140" height="60" as="geometry" />
        </mxCell>
        <mxCell id="haFD14Nc8Q8okJl3zGvy-138" style="rounded=0;orthogonalLoop=1;jettySize=auto;html=1;exitX=0;exitY=0.667;exitDx=0;exitDy=0;entryX=0.964;entryY=0.275;entryDx=0;entryDy=0;entryPerimeter=0;fillColor=#dae8fc;strokeColor=#6c8ebf;strokeWidth=2;dashed=1;exitPerimeter=0;" edge="1" parent="1" source="haFD14Nc8Q8okJl3zGvy-133" target="haFD14Nc8Q8okJl3zGvy-129">
          <mxGeometry relative="1" as="geometry" />
        </mxCell>
        <mxCell id="haFD14Nc8Q8okJl3zGvy-140" style="rounded=0;orthogonalLoop=1;jettySize=auto;html=1;exitX=1;exitY=0.25;exitDx=0;exitDy=0;entryX=0;entryY=0;entryDx=0;entryDy=0;fillColor=#fad9d5;strokeColor=#ae4132;strokeWidth=2;" edge="1" parent="1" source="haFD14Nc8Q8okJl3zGvy-16" target="haFD14Nc8Q8okJl3zGvy-129">
          <mxGeometry relative="1" as="geometry" />
        </mxCell>
        <mxCell id="haFD14Nc8Q8okJl3zGvy-141" value="&amp;lt;&amp;lt; include &amp;gt;&amp;gt;" style="text;html=1;strokeColor=none;fillColor=default;align=center;verticalAlign=middle;whiteSpace=wrap;rounded=0;fontFamily=Times New Roman;fontSize=12;fontStyle=1" vertex="1" parent="1">
          <mxGeometry x="213.5" y="1185" width="80" height="20" as="geometry" />
        </mxCell>
        <mxCell id="haFD14Nc8Q8okJl3zGvy-142" value="&amp;lt;&amp;lt; include &amp;gt;&amp;gt;" style="text;html=1;strokeColor=none;fillColor=default;align=center;verticalAlign=middle;whiteSpace=wrap;rounded=0;fontFamily=Times New Roman;fontSize=12;fontStyle=1" vertex="1" parent="1">
          <mxGeometry x="220.5" y="690" width="80" height="20" as="geometry" />
        </mxCell>
        <mxCell id="haFD14Nc8Q8okJl3zGvy-143" value="&amp;lt;&amp;lt; include &amp;gt;&amp;gt;" style="text;html=1;strokeColor=none;fillColor=default;align=center;verticalAlign=middle;whiteSpace=wrap;rounded=0;fontFamily=Times New Roman;fontSize=12;fontStyle=1" vertex="1" parent="1">
          <mxGeometry x="215.5" y="1290" width="80" height="20" as="geometry" />
        </mxCell>
        <mxCell id="haFD14Nc8Q8okJl3zGvy-144" value="&amp;lt;&amp;lt;&amp;nbsp;extend&amp;nbsp;&amp;gt;&amp;gt;" style="text;html=1;strokeColor=none;fillColor=default;align=center;verticalAlign=middle;whiteSpace=wrap;rounded=0;fontFamily=Times New Roman;fontSize=12;fontStyle=1" vertex="1" parent="1">
          <mxGeometry x="308.5" y="1171" width="80" height="20" as="geometry" />
        </mxCell>
        <mxCell id="haFD14Nc8Q8okJl3zGvy-145" value="&amp;lt;&amp;lt;&amp;nbsp;extend&amp;nbsp;&amp;gt;&amp;gt;" style="text;html=1;strokeColor=none;fillColor=none;align=center;verticalAlign=middle;whiteSpace=wrap;rounded=0;fontFamily=Times New Roman;fontSize=12;fontStyle=1" vertex="1" parent="1">
          <mxGeometry x="385.5" y="1197" width="80" height="20" as="geometry" />
        </mxCell>
        <mxCell id="haFD14Nc8Q8okJl3zGvy-146" value="&amp;lt;&amp;lt;&amp;nbsp;extend&amp;nbsp;&amp;gt;&amp;gt;" style="text;html=1;strokeColor=none;fillColor=none;align=center;verticalAlign=middle;whiteSpace=wrap;rounded=0;fontFamily=Times New Roman;fontSize=12;fontStyle=1" vertex="1" parent="1">
          <mxGeometry x="401.5" y="1250" width="80" height="20" as="geometry" />
        </mxCell>
        <mxCell id="haFD14Nc8Q8okJl3zGvy-147" value="&amp;lt;&amp;lt;&amp;nbsp;extend&amp;nbsp;&amp;gt;&amp;gt;" style="text;html=1;strokeColor=none;fillColor=default;align=center;verticalAlign=middle;whiteSpace=wrap;rounded=0;fontFamily=Times New Roman;fontSize=12;fontStyle=1" vertex="1" parent="1">
          <mxGeometry x="318.5" y="1287" width="80" height="20" as="geometry" />
        </mxCell>
        <mxCell id="haFD14Nc8Q8okJl3zGvy-148" value="&amp;lt;&amp;lt;&amp;nbsp;extend&amp;nbsp;&amp;gt;&amp;gt;" style="text;html=1;strokeColor=none;fillColor=default;align=center;verticalAlign=middle;whiteSpace=wrap;rounded=0;fontFamily=Times New Roman;fontSize=12;fontStyle=1" vertex="1" parent="1">
          <mxGeometry x="308.5" y="670" width="80" height="20" as="geometry" />
        </mxCell>
        <mxCell id="haFD14Nc8Q8okJl3zGvy-149" value="&amp;lt;&amp;lt;&amp;nbsp;extend&amp;nbsp;&amp;gt;&amp;gt;" style="text;html=1;strokeColor=none;fillColor=default;align=center;verticalAlign=middle;whiteSpace=wrap;rounded=0;fontFamily=Times New Roman;fontSize=12;fontStyle=1" vertex="1" parent="1">
          <mxGeometry x="412.5" y="670" width="80" height="20" as="geometry" />
        </mxCell>
        <mxCell id="haFD14Nc8Q8okJl3zGvy-150" value="&amp;lt;&amp;lt;&amp;nbsp;extend&amp;nbsp;&amp;gt;&amp;gt;" style="text;html=1;strokeColor=none;fillColor=default;align=center;verticalAlign=middle;whiteSpace=wrap;rounded=0;fontFamily=Times New Roman;fontSize=12;fontStyle=1" vertex="1" parent="1">
          <mxGeometry x="408.5" y="726" width="80" height="20" as="geometry" />
        </mxCell>
        <mxCell id="haFD14Nc8Q8okJl3zGvy-151" value="&amp;lt;&amp;lt;&amp;nbsp;extend&amp;nbsp;&amp;gt;&amp;gt;" style="text;html=1;strokeColor=none;fillColor=none;align=center;verticalAlign=middle;whiteSpace=wrap;rounded=0;fontFamily=Times New Roman;fontSize=12;fontStyle=1" vertex="1" parent="1">
          <mxGeometry x="388.5" y="760" width="80" height="20" as="geometry" />
        </mxCell>
        <mxCell id="haFD14Nc8Q8okJl3zGvy-181" style="rounded=0;orthogonalLoop=1;jettySize=auto;html=1;exitX=0.5;exitY=0;exitDx=0;exitDy=0;entryX=0.5;entryY=1;entryDx=0;entryDy=0;fillColor=#dae8fc;strokeColor=#6c8ebf;strokeWidth=2;dashed=1;" edge="1" parent="1" source="haFD14Nc8Q8okJl3zGvy-182" target="haFD14Nc8Q8okJl3zGvy-183">
          <mxGeometry relative="1" as="geometry" />
        </mxCell>
        <mxCell id="haFD14Nc8Q8okJl3zGvy-182" value="Управление&lt;div&gt;сотрудниками&lt;/div&gt;" style="ellipse;whiteSpace=wrap;html=1;fontFamily=Times New Roman;fontStyle=1;fillColor=#dae8fc;strokeColor=#6c8ebf;strokeWidth=2;fontSize=14;align=center;" vertex="1" parent="1">
          <mxGeometry x="178.5" y="1010" width="140" height="60" as="geometry" />
        </mxCell>
        <mxCell id="haFD14Nc8Q8okJl3zGvy-183" value="Просмотр&lt;div&gt;всех сотрудников&lt;/div&gt;" style="ellipse;whiteSpace=wrap;html=1;fontFamily=Times New Roman;fontStyle=1;fillColor=#dae8fc;strokeColor=#6c8ebf;strokeWidth=2;fontSize=14;align=center;" vertex="1" parent="1">
          <mxGeometry x="198.5" y="850" width="140" height="60" as="geometry" />
        </mxCell>
        <mxCell id="haFD14Nc8Q8okJl3zGvy-184" style="rounded=0;orthogonalLoop=1;jettySize=auto;html=1;exitX=0;exitY=1;exitDx=0;exitDy=0;entryX=0.715;entryY=0.017;entryDx=0;entryDy=0;fillColor=#dae8fc;strokeColor=#6c8ebf;strokeWidth=2;dashed=1;entryPerimeter=0;" edge="1" parent="1" source="haFD14Nc8Q8okJl3zGvy-185" target="haFD14Nc8Q8okJl3zGvy-182">
          <mxGeometry relative="1" as="geometry" />
        </mxCell>
        <mxCell id="haFD14Nc8Q8okJl3zGvy-185" value="Добавление&lt;div&gt;нового&lt;/div&gt;&lt;div&gt;сотрудника&lt;/div&gt;" style="ellipse;whiteSpace=wrap;html=1;fontFamily=Times New Roman;fontStyle=1;fillColor=#dae8fc;strokeColor=#6c8ebf;strokeWidth=2;fontSize=14;align=center;" vertex="1" parent="1">
          <mxGeometry x="370" y="850" width="137" height="60" as="geometry" />
        </mxCell>
        <mxCell id="haFD14Nc8Q8okJl3zGvy-186" style="rounded=0;orthogonalLoop=1;jettySize=auto;html=1;exitX=0.059;exitY=0.716;exitDx=0;exitDy=0;entryX=1;entryY=0;entryDx=0;entryDy=0;fillColor=#dae8fc;strokeColor=#6c8ebf;strokeWidth=2;dashed=1;exitPerimeter=0;" edge="1" parent="1" source="haFD14Nc8Q8okJl3zGvy-187" target="haFD14Nc8Q8okJl3zGvy-182">
          <mxGeometry relative="1" as="geometry" />
        </mxCell>
        <mxCell id="haFD14Nc8Q8okJl3zGvy-187" value="Обновление&lt;div&gt;информации&lt;/div&gt;&lt;div&gt;о сотруднике&lt;/div&gt;" style="ellipse;whiteSpace=wrap;html=1;fontFamily=Times New Roman;fontStyle=1;fillColor=#dae8fc;strokeColor=#6c8ebf;strokeWidth=2;fontSize=14;align=center;" vertex="1" parent="1">
          <mxGeometry x="538.5" y="850" width="140" height="60" as="geometry" />
        </mxCell>
        <mxCell id="haFD14Nc8Q8okJl3zGvy-188" value="Удаление&lt;div&gt;сотрудника&lt;br&gt;&lt;/div&gt;" style="ellipse;whiteSpace=wrap;html=1;fontFamily=Times New Roman;fontStyle=1;fillColor=#dae8fc;strokeColor=#6c8ebf;strokeWidth=2;fontSize=14;align=center;" vertex="1" parent="1">
          <mxGeometry x="538.5" y="930" width="140" height="60" as="geometry" />
        </mxCell>
        <mxCell id="haFD14Nc8Q8okJl3zGvy-189" style="rounded=0;orthogonalLoop=1;jettySize=auto;html=1;exitX=0;exitY=0.5;exitDx=0;exitDy=0;fillColor=#dae8fc;strokeColor=#6c8ebf;strokeWidth=2;dashed=1;" edge="1" parent="1" source="haFD14Nc8Q8okJl3zGvy-190" target="haFD14Nc8Q8okJl3zGvy-182">
          <mxGeometry relative="1" as="geometry" />
        </mxCell>
        <mxCell id="haFD14Nc8Q8okJl3zGvy-190" value="Просмотр&lt;div&gt;инфомации&lt;/div&gt;&lt;div&gt;о&amp;nbsp;&lt;span style=&quot;background-color: initial;&quot;&gt;сотруднике&lt;/span&gt;&lt;/div&gt;" style="ellipse;whiteSpace=wrap;html=1;fontFamily=Times New Roman;fontStyle=1;fillColor=#dae8fc;strokeColor=#6c8ebf;strokeWidth=2;fontSize=14;align=center;" vertex="1" parent="1">
          <mxGeometry x="538.5" y="1010" width="140" height="60" as="geometry" />
        </mxCell>
        <mxCell id="haFD14Nc8Q8okJl3zGvy-191" style="rounded=0;orthogonalLoop=1;jettySize=auto;html=1;exitX=0;exitY=0.667;exitDx=0;exitDy=0;entryX=0.964;entryY=0.275;entryDx=0;entryDy=0;entryPerimeter=0;fillColor=#dae8fc;strokeColor=#6c8ebf;strokeWidth=2;dashed=1;exitPerimeter=0;" edge="1" parent="1" source="haFD14Nc8Q8okJl3zGvy-188" target="haFD14Nc8Q8okJl3zGvy-182">
          <mxGeometry relative="1" as="geometry" />
        </mxCell>
        <mxCell id="haFD14Nc8Q8okJl3zGvy-192" value="&amp;lt;&amp;lt; include &amp;gt;&amp;gt;" style="text;html=1;strokeColor=none;fillColor=default;align=center;verticalAlign=middle;whiteSpace=wrap;rounded=0;fontFamily=Times New Roman;fontSize=12;fontStyle=1" vertex="1" parent="1">
          <mxGeometry x="220.5" y="950" width="80" height="20" as="geometry" />
        </mxCell>
        <mxCell id="haFD14Nc8Q8okJl3zGvy-193" value="&amp;lt;&amp;lt;&amp;nbsp;extend&amp;nbsp;&amp;gt;&amp;gt;" style="text;html=1;strokeColor=none;fillColor=default;align=center;verticalAlign=middle;whiteSpace=wrap;rounded=0;fontFamily=Times New Roman;fontSize=12;fontStyle=1" vertex="1" parent="1">
          <mxGeometry x="308.5" y="930" width="80" height="20" as="geometry" />
        </mxCell>
        <mxCell id="haFD14Nc8Q8okJl3zGvy-194" value="&amp;lt;&amp;lt;&amp;nbsp;extend&amp;nbsp;&amp;gt;&amp;gt;" style="text;html=1;strokeColor=none;fillColor=default;align=center;verticalAlign=middle;whiteSpace=wrap;rounded=0;fontFamily=Times New Roman;fontSize=12;fontStyle=1" vertex="1" parent="1">
          <mxGeometry x="412.5" y="930" width="80" height="20" as="geometry" />
        </mxCell>
        <mxCell id="haFD14Nc8Q8okJl3zGvy-195" value="&amp;lt;&amp;lt;&amp;nbsp;extend&amp;nbsp;&amp;gt;&amp;gt;" style="text;html=1;strokeColor=none;fillColor=default;align=center;verticalAlign=middle;whiteSpace=wrap;rounded=0;fontFamily=Times New Roman;fontSize=12;fontStyle=1" vertex="1" parent="1">
          <mxGeometry x="408.5" y="986" width="80" height="20" as="geometry" />
        </mxCell>
        <mxCell id="haFD14Nc8Q8okJl3zGvy-196" value="&amp;lt;&amp;lt;&amp;nbsp;extend&amp;nbsp;&amp;gt;&amp;gt;" style="text;html=1;strokeColor=none;fillColor=none;align=center;verticalAlign=middle;whiteSpace=wrap;rounded=0;fontFamily=Times New Roman;fontSize=12;fontStyle=1" vertex="1" parent="1">
          <mxGeometry x="388.5" y="1020" width="80" height="20" as="geometry" />
        </mxCell>
        <mxCell id="haFD14Nc8Q8okJl3zGvy-197" style="rounded=0;orthogonalLoop=1;jettySize=auto;html=1;exitX=1;exitY=0.25;exitDx=0;exitDy=0;entryX=0;entryY=0;entryDx=0;entryDy=0;fillColor=#fad9d5;strokeColor=#ae4132;strokeWidth=2;" edge="1" parent="1" source="haFD14Nc8Q8okJl3zGvy-16" target="haFD14Nc8Q8okJl3zGvy-182">
          <mxGeometry relative="1" as="geometry" />
        </mxCell>
        <mxCell id="haFD14Nc8Q8okJl3zGvy-33" style="rounded=0;orthogonalLoop=1;jettySize=auto;html=1;exitX=1;exitY=0.25;exitDx=0;exitDy=0;entryX=0;entryY=0.5;entryDx=0;entryDy=0;fillColor=#b1ddf0;strokeColor=#10739e;strokeWidth=2;" edge="1" parent="1" source="haFD14Nc8Q8okJl3zGvy-20" target="haFD14Nc8Q8okJl3zGvy-28">
          <mxGeometry relative="1" as="geometry" />
        </mxCell>
        <mxCell id="haFD14Nc8Q8okJl3zGvy-38" style="rounded=0;orthogonalLoop=1;jettySize=auto;html=1;exitX=1;exitY=0.25;exitDx=0;exitDy=0;entryX=0;entryY=1;entryDx=0;entryDy=0;fillColor=#b1ddf0;strokeColor=#10739e;strokeWidth=2;" edge="1" parent="1" source="haFD14Nc8Q8okJl3zGvy-20" target="haFD14Nc8Q8okJl3zGvy-30">
          <mxGeometry relative="1" as="geometry">
            <Array as="points">
              <mxPoint x="320" y="330" />
            </Array>
          </mxGeometry>
        </mxCell>
        <mxCell id="haFD14Nc8Q8okJl3zGvy-49" style="rounded=0;orthogonalLoop=1;jettySize=auto;html=1;exitX=1;exitY=0.25;exitDx=0;exitDy=0;entryX=0;entryY=0.5;entryDx=0;entryDy=0;fillColor=#b1ddf0;strokeColor=#10739e;strokeWidth=2;" edge="1" parent="1" source="haFD14Nc8Q8okJl3zGvy-20" target="haFD14Nc8Q8okJl3zGvy-26">
          <mxGeometry relative="1" as="geometry" />
        </mxCell>
        <mxCell id="haFD14Nc8Q8okJl3zGvy-50" style="rounded=0;orthogonalLoop=1;jettySize=auto;html=1;exitX=1;exitY=0.25;exitDx=0;exitDy=0;entryX=0;entryY=1;entryDx=0;entryDy=0;fillColor=#b1ddf0;strokeColor=#10739e;strokeWidth=2;" edge="1" parent="1" source="haFD14Nc8Q8okJl3zGvy-20" target="haFD14Nc8Q8okJl3zGvy-29">
          <mxGeometry relative="1" as="geometry" />
        </mxCell>
        <mxCell id="haFD14Nc8Q8okJl3zGvy-65" style="rounded=0;orthogonalLoop=1;jettySize=auto;html=1;exitX=1;exitY=0.25;exitDx=0;exitDy=0;entryX=0;entryY=0.5;entryDx=0;entryDy=0;fillColor=#b1ddf0;strokeColor=#10739e;strokeWidth=2;" edge="1" parent="1" source="haFD14Nc8Q8okJl3zGvy-20" target="haFD14Nc8Q8okJl3zGvy-54">
          <mxGeometry relative="1" as="geometry" />
        </mxCell>
        <mxCell id="haFD14Nc8Q8okJl3zGvy-112" style="rounded=0;orthogonalLoop=1;jettySize=auto;html=1;exitX=1;exitY=0.25;exitDx=0;exitDy=0;fillColor=#b1ddf0;strokeColor=#10739e;strokeWidth=2;entryX=0.03;entryY=0.357;entryDx=0;entryDy=0;entryPerimeter=0;" edge="1" parent="1" source="haFD14Nc8Q8okJl3zGvy-20" target="haFD14Nc8Q8okJl3zGvy-110">
          <mxGeometry relative="1" as="geometry">
            <mxPoint x="190" y="1340" as="targetPoint" />
          </mxGeometry>
        </mxCell>
        <mxCell id="haFD14Nc8Q8okJl3zGvy-13" value="" style="group" vertex="1" connectable="0" parent="1">
          <mxGeometry x="20" y="110" width="100" height="120" as="geometry" />
        </mxCell>
        <mxCell id="haFD14Nc8Q8okJl3zGvy-14" value="" style="rounded=0;whiteSpace=wrap;html=1;fillColor=none;strokeColor=none;" vertex="1" parent="haFD14Nc8Q8okJl3zGvy-13">
          <mxGeometry width="100" height="120" as="geometry" />
        </mxCell>
        <mxCell id="haFD14Nc8Q8okJl3zGvy-15" value="&lt;font size=&quot;1&quot; face=&quot;Times New Roman&quot;&gt;&lt;b style=&quot;font-size: 14px;&quot;&gt;Администратор&lt;/b&gt;&lt;/font&gt;" style="shape=umlActor;verticalLabelPosition=bottom;verticalAlign=top;html=1;outlineConnect=0;fillColor=#fad9d5;strokeColor=#ae4132;strokeWidth=2;" vertex="1" parent="haFD14Nc8Q8okJl3zGvy-13">
          <mxGeometry x="30" y="10" width="40" height="80" as="geometry" />
        </mxCell>
        <mxCell id="haFD14Nc8Q8okJl3zGvy-16" value="" style="rounded=0;whiteSpace=wrap;html=1;fillColor=none;strokeColor=none;" vertex="1" parent="haFD14Nc8Q8okJl3zGvy-13">
          <mxGeometry x="20" width="60" height="90" as="geometry" />
        </mxCell>
        <mxCell id="haFD14Nc8Q8okJl3zGvy-218" style="edgeStyle=orthogonalEdgeStyle;rounded=0;orthogonalLoop=1;jettySize=auto;html=1;exitX=0.5;exitY=0;exitDx=0;exitDy=0;entryX=0.5;entryY=1;entryDx=0;entryDy=0;strokeWidth=2;fillColor=#dae8fc;strokeColor=#6c8ebf;dashed=1;" edge="1" parent="1" source="haFD14Nc8Q8okJl3zGvy-217" target="haFD14Nc8Q8okJl3zGvy-110">
          <mxGeometry relative="1" as="geometry" />
        </mxCell>
        <mxCell id="haFD14Nc8Q8okJl3zGvy-220" style="edgeStyle=orthogonalEdgeStyle;rounded=0;orthogonalLoop=1;jettySize=auto;html=1;exitX=1;exitY=0.5;exitDx=0;exitDy=0;entryX=0;entryY=0.5;entryDx=0;entryDy=0;fillColor=#dae8fc;strokeColor=#6c8ebf;dashed=1;strokeWidth=2;" edge="1" parent="1" source="haFD14Nc8Q8okJl3zGvy-217" target="haFD14Nc8Q8okJl3zGvy-219">
          <mxGeometry relative="1" as="geometry" />
        </mxCell>
        <mxCell id="haFD14Nc8Q8okJl3zGvy-217" value="Управление&lt;div&gt;бронированиями&lt;/div&gt;" style="ellipse;whiteSpace=wrap;html=1;fontFamily=Times New Roman;fontStyle=1;fillColor=#dae8fc;strokeColor=#6c8ebf;strokeWidth=2;fontSize=14;align=center;" vertex="1" parent="1">
          <mxGeometry x="178.5" y="1460" width="140" height="60" as="geometry" />
        </mxCell>
        <mxCell id="haFD14Nc8Q8okJl3zGvy-219" value="Бронирование&lt;div&gt;рейса&lt;/div&gt;" style="ellipse;whiteSpace=wrap;html=1;fontFamily=Times New Roman;fontStyle=1;fillColor=#dae8fc;strokeColor=#6c8ebf;strokeWidth=2;fontSize=14;align=center;" vertex="1" parent="1">
          <mxGeometry x="410" y="1460" width="140" height="60" as="geometry" />
        </mxCell>
        <mxCell id="haFD14Nc8Q8okJl3zGvy-223" style="rounded=0;orthogonalLoop=1;jettySize=auto;html=1;exitX=0;exitY=0.5;exitDx=0;exitDy=0;entryX=1;entryY=0;entryDx=0;entryDy=0;fillColor=#dae8fc;strokeColor=#6c8ebf;dashed=1;strokeWidth=2;" edge="1" parent="1" source="haFD14Nc8Q8okJl3zGvy-221" target="haFD14Nc8Q8okJl3zGvy-219">
          <mxGeometry relative="1" as="geometry" />
        </mxCell>
        <mxCell id="haFD14Nc8Q8okJl3zGvy-221" value="Отмена&lt;div&gt;бронирования&lt;/div&gt;" style="ellipse;whiteSpace=wrap;html=1;fontFamily=Times New Roman;fontStyle=1;fillColor=#dae8fc;strokeColor=#6c8ebf;strokeWidth=2;fontSize=14;align=center;" vertex="1" parent="1">
          <mxGeometry x="650" y="1420" width="140" height="60" as="geometry" />
        </mxCell>
        <mxCell id="haFD14Nc8Q8okJl3zGvy-224" style="rounded=0;orthogonalLoop=1;jettySize=auto;html=1;exitX=0;exitY=0.5;exitDx=0;exitDy=0;entryX=1;entryY=1;entryDx=0;entryDy=0;fillColor=#dae8fc;strokeColor=#6c8ebf;dashed=1;strokeWidth=2;" edge="1" parent="1" source="haFD14Nc8Q8okJl3zGvy-222" target="haFD14Nc8Q8okJl3zGvy-219">
          <mxGeometry relative="1" as="geometry" />
        </mxCell>
        <mxCell id="haFD14Nc8Q8okJl3zGvy-222" value="Оплата&lt;div&gt;бронирования&lt;/div&gt;" style="ellipse;whiteSpace=wrap;html=1;fontFamily=Times New Roman;fontStyle=1;fillColor=#dae8fc;strokeColor=#6c8ebf;strokeWidth=2;fontSize=14;align=center;" vertex="1" parent="1">
          <mxGeometry x="650" y="1500" width="140" height="60" as="geometry" />
        </mxCell>
        <mxCell id="haFD14Nc8Q8okJl3zGvy-225" value="&amp;lt;&amp;lt;&amp;nbsp;extend&amp;nbsp;&amp;gt;&amp;gt;" style="text;html=1;strokeColor=none;fillColor=default;align=center;verticalAlign=middle;whiteSpace=wrap;rounded=0;fontFamily=Times New Roman;fontSize=12;fontStyle=1" vertex="1" parent="1">
          <mxGeometry x="208.5" y="1417" width="80" height="20" as="geometry" />
        </mxCell>
        <mxCell id="haFD14Nc8Q8okJl3zGvy-227" value="&amp;lt;&amp;lt; include &amp;gt;&amp;gt;" style="text;html=1;strokeColor=none;fillColor=none;align=center;verticalAlign=middle;whiteSpace=wrap;rounded=0;fontFamily=Times New Roman;fontSize=12;fontStyle=1" vertex="1" parent="1">
          <mxGeometry x="319.5" y="1468" width="80" height="20" as="geometry" />
        </mxCell>
        <mxCell id="haFD14Nc8Q8okJl3zGvy-228" value="&amp;lt;&amp;lt;&amp;nbsp;extend&amp;nbsp;&amp;gt;&amp;gt;" style="text;html=1;strokeColor=none;fillColor=none;align=center;verticalAlign=middle;whiteSpace=wrap;rounded=0;fontFamily=Times New Roman;fontSize=12;fontStyle=1" vertex="1" parent="1">
          <mxGeometry x="540" y="1430" width="100" height="30" as="geometry" />
        </mxCell>
        <mxCell id="haFD14Nc8Q8okJl3zGvy-229" value="&amp;lt;&amp;lt;&amp;nbsp;extend&amp;nbsp;&amp;gt;&amp;gt;" style="text;html=1;strokeColor=none;fillColor=none;align=center;verticalAlign=middle;whiteSpace=wrap;rounded=0;fontFamily=Times New Roman;fontSize=12;fontStyle=1" vertex="1" parent="1">
          <mxGeometry x="538.5" y="1520" width="101.5" height="30" as="geometry" />
        </mxCell>
        <mxCell id="haFD14Nc8Q8okJl3zGvy-230" style="rounded=0;orthogonalLoop=1;jettySize=auto;html=1;exitX=1;exitY=0.25;exitDx=0;exitDy=0;entryX=0.043;entryY=0.277;entryDx=0;entryDy=0;fillColor=#b1ddf0;strokeColor=#10739e;strokeWidth=2;entryPerimeter=0;" edge="1" parent="1" source="haFD14Nc8Q8okJl3zGvy-20" target="haFD14Nc8Q8okJl3zGvy-217">
          <mxGeometry relative="1" as="geometry" />
        </mxCell>
        <mxCell id="haFD14Nc8Q8okJl3zGvy-231" value="" style="group" vertex="1" connectable="0" parent="1">
          <mxGeometry x="20" y="350" width="100" height="120" as="geometry" />
        </mxCell>
        <mxCell id="haFD14Nc8Q8okJl3zGvy-18" value="" style="rounded=0;whiteSpace=wrap;html=1;fillColor=none;strokeColor=none;" vertex="1" parent="haFD14Nc8Q8okJl3zGvy-231">
          <mxGeometry width="100" height="120" as="geometry" />
        </mxCell>
        <mxCell id="haFD14Nc8Q8okJl3zGvy-19" value="&lt;font size=&quot;1&quot; face=&quot;Times New Roman&quot;&gt;&lt;b style=&quot;font-size: 14px;&quot;&gt;Пассажир&lt;/b&gt;&lt;/font&gt;" style="shape=umlActor;verticalLabelPosition=bottom;verticalAlign=top;html=1;outlineConnect=0;fillColor=#b1ddf0;strokeColor=#10739e;strokeWidth=2;" vertex="1" parent="haFD14Nc8Q8okJl3zGvy-231">
          <mxGeometry x="30" y="10" width="40" height="80" as="geometry" />
        </mxCell>
        <mxCell id="haFD14Nc8Q8okJl3zGvy-20" value="" style="rounded=0;whiteSpace=wrap;html=1;fillColor=none;strokeColor=none;" vertex="1" parent="haFD14Nc8Q8okJl3zGvy-231">
          <mxGeometry x="20" width="60" height="90" as="geometry" />
        </mxCell>
        <mxCell id="haFD14Nc8Q8okJl3zGvy-239" style="rounded=0;orthogonalLoop=1;jettySize=auto;html=1;exitX=0.5;exitY=0;exitDx=0;exitDy=0;entryX=0.5;entryY=1;entryDx=0;entryDy=0;fillColor=#dae8fc;strokeColor=#6c8ebf;dashed=1;strokeWidth=2;" edge="1" parent="1" source="haFD14Nc8Q8okJl3zGvy-233" target="haFD14Nc8Q8okJl3zGvy-234">
          <mxGeometry relative="1" as="geometry" />
        </mxCell>
        <mxCell id="haFD14Nc8Q8okJl3zGvy-233" value="Управление&lt;div&gt;билетами&lt;/div&gt;" style="ellipse;whiteSpace=wrap;html=1;fontFamily=Times New Roman;fontStyle=1;fillColor=#dae8fc;strokeColor=#6c8ebf;strokeWidth=2;fontSize=14;align=center;" vertex="1" parent="1">
          <mxGeometry x="178.5" y="1740" width="140" height="60" as="geometry" />
        </mxCell>
        <mxCell id="haFD14Nc8Q8okJl3zGvy-234" value="Просмотр&lt;div&gt;&lt;span style=&quot;background-color: initial;&quot;&gt;всех&amp;nbsp;&lt;/span&gt;&lt;span style=&quot;background-color: initial;&quot;&gt;билетов&lt;/span&gt;&lt;div&gt;&lt;span style=&quot;background-color: initial;&quot;&gt;пассажиров&lt;/span&gt;&lt;/div&gt;&lt;/div&gt;" style="ellipse;whiteSpace=wrap;html=1;fontFamily=Times New Roman;fontStyle=1;fillColor=#dae8fc;strokeColor=#6c8ebf;strokeWidth=2;fontSize=14;align=center;" vertex="1" parent="1">
          <mxGeometry x="198.5" y="1600" width="140" height="60" as="geometry" />
        </mxCell>
        <mxCell id="haFD14Nc8Q8okJl3zGvy-240" style="rounded=0;orthogonalLoop=1;jettySize=auto;html=1;exitX=0;exitY=1;exitDx=0;exitDy=0;entryX=1;entryY=0;entryDx=0;entryDy=0;fillColor=#dae8fc;strokeColor=#6c8ebf;dashed=1;strokeWidth=2;" edge="1" parent="1" source="haFD14Nc8Q8okJl3zGvy-235" target="haFD14Nc8Q8okJl3zGvy-233">
          <mxGeometry relative="1" as="geometry" />
        </mxCell>
        <mxCell id="haFD14Nc8Q8okJl3zGvy-235" value="Смена&lt;div&gt;статуса&amp;nbsp;&lt;span style=&quot;background-color: initial;&quot;&gt;билета&lt;/span&gt;&lt;div&gt;пассажира&lt;/div&gt;&lt;/div&gt;" style="ellipse;whiteSpace=wrap;html=1;fontFamily=Times New Roman;fontStyle=1;fillColor=#dae8fc;strokeColor=#6c8ebf;strokeWidth=2;fontSize=14;align=center;" vertex="1" parent="1">
          <mxGeometry x="370" y="1600" width="137" height="60" as="geometry" />
        </mxCell>
        <mxCell id="haFD14Nc8Q8okJl3zGvy-236" value="Удаление&lt;div&gt;билета&lt;/div&gt;&lt;div&gt;пассажира&lt;/div&gt;" style="ellipse;whiteSpace=wrap;html=1;fontFamily=Times New Roman;fontStyle=1;fillColor=#dae8fc;strokeColor=#6c8ebf;strokeWidth=2;fontSize=14;align=center;" vertex="1" parent="1">
          <mxGeometry x="538.5" y="1600" width="140" height="60" as="geometry" />
        </mxCell>
        <mxCell id="haFD14Nc8Q8okJl3zGvy-242" style="rounded=0;orthogonalLoop=1;jettySize=auto;html=1;exitX=0;exitY=0.5;exitDx=0;exitDy=0;entryX=1;entryY=0.5;entryDx=0;entryDy=0;fillColor=#dae8fc;strokeColor=#6c8ebf;dashed=1;strokeWidth=2;" edge="1" parent="1" source="haFD14Nc8Q8okJl3zGvy-237" target="haFD14Nc8Q8okJl3zGvy-233">
          <mxGeometry relative="1" as="geometry" />
        </mxCell>
        <mxCell id="haFD14Nc8Q8okJl3zGvy-237" value="&lt;div style=&quot;font-size: 13px;&quot;&gt;&lt;font style=&quot;font-size: 13px; font-weight: 400;&quot; face=&quot;Times New Roman&quot;&gt;&lt;b style=&quot;font-size: 13px;&quot;&gt;Просмотр&lt;/b&gt;&lt;/font&gt;&lt;div style=&quot;font-family: Helvetica; font-size: 13px; font-weight: 400;&quot;&gt;&lt;font style=&quot;font-size: 13px;&quot; face=&quot;Times New Roman&quot;&gt;&lt;b style=&quot;font-size: 13px;&quot;&gt;финансовой диаграммы&lt;/b&gt;&lt;/font&gt;&lt;/div&gt;&lt;div style=&quot;font-family: Helvetica; font-size: 13px; font-weight: 400;&quot;&gt;&lt;font style=&quot;font-size: 13px;&quot; face=&quot;Times New Roman&quot;&gt;&lt;b style=&quot;font-size: 13px;&quot;&gt;со статусами оплаты билетов&lt;/b&gt;&lt;/font&gt;&lt;/div&gt;&lt;/div&gt;" style="ellipse;whiteSpace=wrap;html=1;fontFamily=Times New Roman;fontStyle=1;fillColor=#dae8fc;strokeColor=#6c8ebf;strokeWidth=2;fontSize=13;align=center;" vertex="1" parent="1">
          <mxGeometry x="517" y="1730" width="158.5" height="80" as="geometry" />
        </mxCell>
        <mxCell id="haFD14Nc8Q8okJl3zGvy-243" style="rounded=0;orthogonalLoop=1;jettySize=auto;html=1;exitX=0.5;exitY=0;exitDx=0;exitDy=0;fillColor=#dae8fc;strokeColor=#6c8ebf;dashed=1;strokeWidth=2;" edge="1" parent="1" source="haFD14Nc8Q8okJl3zGvy-238" target="haFD14Nc8Q8okJl3zGvy-233">
          <mxGeometry relative="1" as="geometry" />
        </mxCell>
        <mxCell id="haFD14Nc8Q8okJl3zGvy-238" value="Просмотр&lt;div&gt;своих билетов&lt;/div&gt;" style="ellipse;whiteSpace=wrap;html=1;fontFamily=Times New Roman;fontStyle=1;fillColor=#dae8fc;strokeColor=#6c8ebf;strokeWidth=2;fontSize=14;align=center;" vertex="1" parent="1">
          <mxGeometry x="198.5" y="1880" width="140" height="60" as="geometry" />
        </mxCell>
        <mxCell id="haFD14Nc8Q8okJl3zGvy-241" style="rounded=0;orthogonalLoop=1;jettySize=auto;html=1;exitX=0;exitY=1;exitDx=0;exitDy=0;entryX=0.994;entryY=0.414;entryDx=0;entryDy=0;entryPerimeter=0;fillColor=#dae8fc;strokeColor=#6c8ebf;dashed=1;strokeWidth=2;" edge="1" parent="1" source="haFD14Nc8Q8okJl3zGvy-236" target="haFD14Nc8Q8okJl3zGvy-233">
          <mxGeometry relative="1" as="geometry" />
        </mxCell>
        <mxCell id="haFD14Nc8Q8okJl3zGvy-245" style="rounded=0;orthogonalLoop=1;jettySize=auto;html=1;exitX=0;exitY=0.5;exitDx=0;exitDy=0;fillColor=#dae8fc;strokeColor=#6c8ebf;strokeWidth=2;dashed=1;" edge="1" parent="1" source="haFD14Nc8Q8okJl3zGvy-244" target="haFD14Nc8Q8okJl3zGvy-238">
          <mxGeometry relative="1" as="geometry" />
        </mxCell>
        <mxCell id="haFD14Nc8Q8okJl3zGvy-244" value="Печать&lt;div&gt;подтверждённых&lt;/div&gt;&lt;div&gt;билетов&lt;/div&gt;" style="ellipse;whiteSpace=wrap;html=1;fontFamily=Times New Roman;fontStyle=1;fillColor=#dae8fc;strokeColor=#6c8ebf;strokeWidth=2;fontSize=14;align=center;" vertex="1" parent="1">
          <mxGeometry x="444" y="1880" width="140" height="60" as="geometry" />
        </mxCell>
        <mxCell id="haFD14Nc8Q8okJl3zGvy-247" value="&amp;lt;&amp;lt;&amp;nbsp;extend&amp;nbsp;&amp;gt;&amp;gt;" style="text;html=1;strokeColor=none;fillColor=none;align=center;verticalAlign=middle;whiteSpace=wrap;rounded=0;fontFamily=Times New Roman;fontSize=12;fontStyle=1" vertex="1" parent="1">
          <mxGeometry x="360" y="1888" width="80" height="20" as="geometry" />
        </mxCell>
        <mxCell id="haFD14Nc8Q8okJl3zGvy-248" value="&amp;lt;&amp;lt;&amp;nbsp;extend&amp;nbsp;&amp;gt;&amp;gt;" style="text;html=1;strokeColor=none;fillColor=none;align=center;verticalAlign=middle;whiteSpace=wrap;rounded=0;fontFamily=Times New Roman;fontSize=12;fontStyle=1" vertex="1" parent="1">
          <mxGeometry x="390" y="1771" width="80" height="20" as="geometry" />
        </mxCell>
        <mxCell id="haFD14Nc8Q8okJl3zGvy-249" value="&amp;lt;&amp;lt;&amp;nbsp;extend&amp;nbsp;&amp;gt;&amp;gt;" style="text;html=1;strokeColor=none;fillColor=default;align=center;verticalAlign=middle;whiteSpace=wrap;rounded=0;fontFamily=Times New Roman;fontSize=12;fontStyle=1" vertex="1" parent="1">
          <mxGeometry x="417" y="1690" width="80" height="20" as="geometry" />
        </mxCell>
        <mxCell id="haFD14Nc8Q8okJl3zGvy-250" value="&amp;lt;&amp;lt;&amp;nbsp;extend&amp;nbsp;&amp;gt;&amp;gt;" style="text;html=1;strokeColor=none;fillColor=default;align=center;verticalAlign=middle;whiteSpace=wrap;rounded=0;fontFamily=Times New Roman;fontSize=12;fontStyle=1" vertex="1" parent="1">
          <mxGeometry x="317" y="1677" width="80" height="20" as="geometry" />
        </mxCell>
        <mxCell id="haFD14Nc8Q8okJl3zGvy-251" value="&amp;lt;&amp;lt; include &amp;gt;&amp;gt;" style="text;html=1;strokeColor=none;fillColor=default;align=center;verticalAlign=middle;whiteSpace=wrap;rounded=0;fontFamily=Times New Roman;fontSize=12;fontStyle=1" vertex="1" parent="1">
          <mxGeometry x="215.5" y="1690" width="80" height="20" as="geometry" />
        </mxCell>
        <mxCell id="haFD14Nc8Q8okJl3zGvy-252" value="&amp;lt;&amp;lt; include &amp;gt;&amp;gt;" style="text;html=1;strokeColor=none;fillColor=default;align=center;verticalAlign=middle;whiteSpace=wrap;rounded=0;fontFamily=Times New Roman;fontSize=12;fontStyle=1" vertex="1" parent="1">
          <mxGeometry x="222" y="1830" width="80" height="20" as="geometry" />
        </mxCell>
        <mxCell id="haFD14Nc8Q8okJl3zGvy-254" style="rounded=0;orthogonalLoop=1;jettySize=auto;html=1;exitX=1;exitY=0.25;exitDx=0;exitDy=0;fillColor=#fad9d5;strokeColor=#ae4132;strokeWidth=2;entryX=0.099;entryY=0.213;entryDx=0;entryDy=0;entryPerimeter=0;" edge="1" parent="1" source="haFD14Nc8Q8okJl3zGvy-16" target="haFD14Nc8Q8okJl3zGvy-233">
          <mxGeometry relative="1" as="geometry">
            <mxPoint x="190" y="1750" as="targetPoint" />
            <Array as="points">
              <mxPoint x="150" y="1520" />
            </Array>
          </mxGeometry>
        </mxCell>
        <mxCell id="haFD14Nc8Q8okJl3zGvy-255" style="rounded=0;orthogonalLoop=1;jettySize=auto;html=1;exitX=1;exitY=0.25;exitDx=0;exitDy=0;entryX=0.002;entryY=0.383;entryDx=0;entryDy=0;fillColor=#b0e3e6;strokeColor=#0e8088;strokeWidth=2;entryPerimeter=0;" edge="1" parent="1" source="haFD14Nc8Q8okJl3zGvy-20" target="haFD14Nc8Q8okJl3zGvy-238">
          <mxGeometry relative="1" as="geometry">
            <Array as="points">
              <mxPoint x="120" y="1530" />
            </Array>
          </mxGeometry>
        </mxCell>
      </root>
    </mxGraphModel>
  </diagram>
</mxfile>
